<svg xmlns="http://www.w3.org/2000/svg" xmlns:xlink="http://www.w3.org/1999/xlink" viewBox="0 0 512 512"><defs><style>.cls-1{fill:#61dafb;}.cls-2{font-size:47.28px;font-family:Barlow-Bold, Barlow;font-weight:700;}.cls-3{letter-spacing:0em;}.cls-4{letter-spacing:-0.03em;}.cls-5{fill:#eb96ef;}.cls-6{fill:#2ecef6;}.cls-7{font-size:94.96px;font-family:Barlow-SemiBold, Barlow;font-weight:600;}</style><symbol id="scoreboard-wordmark" data-name="scoreboard-wordmark" viewBox="0 0 289.97 52.34"><text class="cls-2" transform="translate(0 40.19)">SCORE<tspan class="cls-3" x="142.74" y="0">B</tspan><tspan class="cls-4" x="172.01" y="0">O</tspan><tspan x="200" y="0">ARD</tspan></text></symbol><symbol id="react" data-name="react" viewBox="0 0 78.86 70.23"><path class="cls-1" d="M78.86,35.12c0-5.22-6.54-10.17-16.57-13.24C64.6,11.65,63.57,3.52,59,.92A7,7,0,0,0,55.45,0V0C51,0,45.25,3.15,39.4,8.62,33.55,3.18,27.76.06,23.34.06v0a7.16,7.16,0,0,0-3.63.9c-4.52,2.6-5.53,10.72-3.2,20.91C6.51,25,0,29.91,0,35.12S6.54,45.3,16.57,48.37c-2.31,10.22-1.28,18.35,3.25,21a7.07,7.07,0,0,0,3.62.9c4.42,0,10.2-3.15,16.05-8.62,5.85,5.43,11.64,8.55,16.06,8.55a7.16,7.16,0,0,0,3.63-.9c4.52-2.6,5.53-10.72,3.2-20.91C72.35,45.28,78.86,40.33,78.86,35.12ZM55.44,3.58v0A3.75,3.75,0,0,1,57.27,4c2.19,1.25,3.14,6,2.4,12.17-.18,1.51-.47,3.1-.82,4.72a78.82,78.82,0,0,0-10.21-1.75,79.19,79.19,0,0,0-6.69-8C47.18,6.26,52.1,3.59,55.44,3.58ZM25.19,43.35q1.13,1.93,2.31,3.76c-2.28-.34-4.48-.75-6.59-1.27.6-2.07,1.34-4.21,2.17-6.35C23.74,40.78,24.43,42.07,25.19,43.35Zm-4.33-19c2.11-.5,4.33-.93,6.63-1.27-.79,1.24-1.58,2.51-2.32,3.81s-1.43,2.57-2.09,3.86C22.21,28.64,21.47,26.49,20.86,24.4ZM25,35.17c1-2.15,2.12-4.31,3.33-6.41s2.54-4.23,3.87-6.14c2.4-.21,4.83-.33,7.27-.33s4.85.12,7.23.31q2,2.87,3.89,6.11c1.22,2.1,2.33,4.24,3.35,6.4-1,2.15-2.13,4.3-3.33,6.41S48,45.75,46.69,47.66c-2.39.21-4.82.32-7.26.32s-4.86-.11-7.23-.31c-1.34-1.91-2.64-4-3.89-6.1S26,37.32,25,35.17ZM53.67,43.3c.74-1.28,1.43-2.59,2.09-3.87A67.71,67.71,0,0,1,58,45.83c-2.11.51-4.33.94-6.62,1.28C52.14,45.87,52.93,44.6,53.67,43.3Zm0-16.41c-.74-1.28-1.52-2.54-2.31-3.76q3.42.51,6.59,1.27c-.59,2.07-1.33,4.21-2.17,6.35C55.1,29.46,54.41,28.18,53.65,26.89Zm-9.8-8.08c-1.45-.07-2.93-.12-4.42-.12s-3,0-4.47.12a64.6,64.6,0,0,1,4.42-5.15A67,67,0,0,1,43.85,18.81ZM21.49,4.08a3.57,3.57,0,0,1,1.85-.42h0c3.33,0,8.26,2.65,13.5,7.49a76.31,76.31,0,0,0-6.64,8A75.35,75.35,0,0,0,20,20.93c-.37-1.61-.64-3.17-.84-4.66C18.39,10.13,19.32,5.35,21.49,4.08Zm-4,40.81a45.41,45.41,0,0,1-4.5-1.64c-5.69-2.42-9.37-5.61-9.37-8.13S7.25,29.4,12.94,27c1.38-.6,2.89-1.13,4.45-1.63A77.1,77.1,0,0,0,21,35.15,76.53,76.53,0,0,0,17.44,44.89Zm6,21.77a3.78,3.78,0,0,1-1.81-.44c-2.19-1.25-3.14-6-2.4-12.16.18-1.51.47-3.11.82-4.73a77.15,77.15,0,0,0,10.21,1.75,77,77,0,0,0,6.69,8C31.67,64,26.75,66.66,23.4,66.66ZM39.46,56.58A67,67,0,0,1,35,51.44c1.45.06,2.93.11,4.42.11s3,0,4.47-.11A62.67,62.67,0,0,1,39.46,56.58Zm17.91,9.58a3.57,3.57,0,0,1-1.85.42c-3.33,0-8.26-2.65-13.5-7.49a77.35,77.35,0,0,0,6.64-8A75.35,75.35,0,0,0,58.88,49.3,42.8,42.8,0,0,1,59.71,54C60.47,60.12,59.54,64.89,57.37,66.16ZM65.9,43.25c-1.38.6-2.89,1.13-4.45,1.63a77.1,77.1,0,0,0-3.62-9.79,76,76,0,0,0,3.57-9.74c1.59.5,3.1,1,4.52,1.64,5.69,2.43,9.37,5.61,9.37,8.13S71.59,40.84,65.9,43.25Z"/><circle class="cls-1" cx="39.41" cy="35.12" r="7.35"/></symbol></defs><title>scoreboard-logo</title><g id="logo"><path class="cls-5" d="M251.39,399.13h-80.2A102.42,102.42,0,0,1,68.77,296.71V127.61A102.48,102.48,0,0,1,171.25,25.13h80.14Z"/><path class="cls-6" d="M340.24,399.13H260.15v-374h80a102.6,102.6,0,0,1,102.59,102.6V296.6A102.53,102.53,0,0,1,340.24,399.13Z"/><text class="cls-7" transform="translate(158.5 130.89)">1<tspan x="-11.82" y="110.3">S</tspan><tspan x="-9.02" y="220.6">3</tspan></text><text class="cls-7" transform="translate(309.03 130.89)">4<tspan x="-1.71" y="110.3">B</tspan><tspan x="2.71" y="220.6">6</tspan></text><use width="289.97" height="52.34" transform="translate(68.8 429.06)" xlink:href="#scoreboard-wordmark"/><use width="78.86" height="70.23" transform="translate(363.91 417.21)" xlink:href="#react"/></g></svg>